<svg width="518" height="577" viewBox="0 0 518 577" fill="none" xmlns="http://www.w3.org/2000/svg">
<path d="M214.908 280.257C212.146 280.257 209.908 282.495 209.908 285.257C209.908 288.018 212.146 290.257 214.908 290.257V280.257ZM214.908 290.257H337.727V280.257H214.908V290.257ZM350.727 277.257V161.181H340.727V277.257H350.727ZM337.727 290.257C344.907 290.257 350.727 284.436 350.727 277.257H340.727C340.727 278.914 339.384 280.257 337.727 280.257V290.257Z" fill="#0C68F4"/>
<path d="M173.242 334.027C170.48 334.027 168.242 336.266 168.242 339.027C168.242 341.789 170.48 344.027 173.242 344.027V334.027ZM173.242 344.027H467.34V334.027H173.242V344.027ZM480.34 331.027V285.081H470.34V331.027H480.34ZM467.34 344.027C474.52 344.027 480.34 338.207 480.34 331.027H470.34C470.34 332.684 468.997 334.027 467.34 334.027V344.027Z" fill="#0C68F4"/>
<path d="M165.566 386.438C162.805 386.438 160.566 388.677 160.566 391.438C160.566 394.2 162.805 396.438 165.566 396.438V386.438ZM165.566 396.438H462.27V386.438H165.566V396.438Z" fill="#0C68F4"/>
<path d="M208.329 439.069C205.567 439.069 203.329 441.307 203.329 444.069C203.329 446.83 205.567 449.069 208.329 449.069V439.069ZM208.329 449.069H355.035V439.069H208.329V449.069ZM358.035 452.069V503.502H368.035V452.069H358.035ZM371.035 516.502H402.535V506.502H371.035V516.502ZM358.035 503.502C358.035 510.681 363.855 516.502 371.035 516.502V506.502C369.378 506.502 368.035 505.158 368.035 503.502H358.035ZM355.035 449.069C356.692 449.069 358.035 450.412 358.035 452.069H368.035C368.035 444.889 362.215 439.069 355.035 439.069V449.069Z" fill="#0C68F4"/>
<mask id="path-5-inside-1_3389_69354" fill="white">
<path d="M374.619 135.775C374.619 151.417 361.939 164.097 346.297 164.097C330.655 164.097 317.975 151.417 317.975 135.775C317.975 120.134 330.655 107.454 346.297 107.454C361.939 107.454 374.619 120.134 374.619 135.775ZM329.304 135.775C329.304 145.16 336.912 152.768 346.297 152.768C355.682 152.768 363.29 145.16 363.29 135.775C363.29 126.39 355.682 118.782 346.297 118.782C336.912 118.782 329.304 126.39 329.304 135.775Z"/>
</mask>
<path d="M374.619 135.775C374.619 151.417 361.939 164.097 346.297 164.097C330.655 164.097 317.975 151.417 317.975 135.775C317.975 120.134 330.655 107.454 346.297 107.454C361.939 107.454 374.619 120.134 374.619 135.775ZM329.304 135.775C329.304 145.16 336.912 152.768 346.297 152.768C355.682 152.768 363.29 145.16 363.29 135.775C363.29 126.39 355.682 118.782 346.297 118.782C336.912 118.782 329.304 126.39 329.304 135.775Z" fill="#F45E0C" stroke="#F45E0C" stroke-width="4.38586" mask="url(#path-5-inside-1_3389_69354)"/>
<mask id="path-6-inside-2_3389_69354" fill="white">
<path d="M504.002 257.735C504.002 273.377 491.322 286.057 475.68 286.057C460.038 286.057 447.358 273.377 447.358 257.735C447.358 242.094 460.038 229.414 475.68 229.414C491.322 229.414 504.002 242.094 504.002 257.735ZM458.687 257.735C458.687 267.12 466.295 274.728 475.68 274.728C485.065 274.728 492.673 267.12 492.673 257.735C492.673 248.35 485.065 240.742 475.68 240.742C466.295 240.742 458.687 248.35 458.687 257.735Z"/>
</mask>
<path d="M504.002 257.735C504.002 273.377 491.322 286.057 475.68 286.057C460.038 286.057 447.358 273.377 447.358 257.735C447.358 242.094 460.038 229.414 475.68 229.414C491.322 229.414 504.002 242.094 504.002 257.735ZM458.687 257.735C458.687 267.12 466.295 274.728 475.68 274.728C485.065 274.728 492.673 267.12 492.673 257.735C492.673 248.35 485.065 240.742 475.68 240.742C466.295 240.742 458.687 248.35 458.687 257.735Z" fill="#F45E0C" stroke="#F45E0C" stroke-width="4.38586" mask="url(#path-6-inside-2_3389_69354)"/>
<mask id="path-7-inside-3_3389_69354" fill="white">
<path d="M517.159 390.156C517.159 405.797 504.479 418.477 488.837 418.477C473.196 418.477 460.516 405.797 460.516 390.156C460.516 374.514 473.196 361.834 488.837 361.834C504.479 361.834 517.159 374.514 517.159 390.156ZM471.844 390.156C471.844 399.541 479.452 407.149 488.837 407.149C498.222 407.149 505.83 399.541 505.83 390.156C505.83 380.771 498.222 373.163 488.837 373.163C479.452 373.163 471.844 380.771 471.844 390.156Z"/>
</mask>
<path d="M517.159 390.156C517.159 405.797 504.479 418.477 488.837 418.477C473.196 418.477 460.516 405.797 460.516 390.156C460.516 374.514 473.196 361.834 488.837 361.834C504.479 361.834 517.159 374.514 517.159 390.156ZM471.844 390.156C471.844 399.541 479.452 407.149 488.837 407.149C498.222 407.149 505.83 399.541 505.83 390.156C505.83 380.771 498.222 373.163 488.837 373.163C479.452 373.163 471.844 380.771 471.844 390.156Z" fill="#F45E0C" stroke="#F45E0C" stroke-width="4.38586" mask="url(#path-7-inside-3_3389_69354)"/>
<mask id="path-8-inside-4_3389_69354" fill="white">
<path d="M457.951 510.767C457.951 526.409 445.271 539.089 429.629 539.089C413.987 539.089 401.307 526.409 401.307 510.767C401.307 495.125 413.987 482.445 429.629 482.445C445.271 482.445 457.951 495.125 457.951 510.767ZM412.636 510.767C412.636 520.152 420.244 527.76 429.629 527.76C439.014 527.76 446.622 520.152 446.622 510.767C446.622 501.382 439.014 493.774 429.629 493.774C420.244 493.774 412.636 501.382 412.636 510.767Z"/>
</mask>
<path d="M457.951 510.767C457.951 526.409 445.271 539.089 429.629 539.089C413.987 539.089 401.307 526.409 401.307 510.767C401.307 495.125 413.987 482.445 429.629 482.445C445.271 482.445 457.951 495.125 457.951 510.767ZM412.636 510.767C412.636 520.152 420.244 527.76 429.629 527.76C439.014 527.76 446.622 520.152 446.622 510.767C446.622 501.382 439.014 493.774 429.629 493.774C420.244 493.774 412.636 501.382 412.636 510.767Z" fill="#F45E0C" stroke="#F45E0C" stroke-width="4.38586" mask="url(#path-8-inside-4_3389_69354)"/>
<path d="M291.403 539.461H39.5C26.2452 539.461 15.5 528.716 15.5 515.461V190.609C15.5 182.509 19.5854 174.956 26.3642 170.523L242.81 28.9722C250.301 24.0732 259.896 23.75 267.699 28.1336L417 112" stroke="#0C68F4" stroke-width="16" stroke-linecap="round"/>
</svg>
